<?xml version="1.0" encoding="utf-8"?>
<!-- Generator: Adobe Illustrator 23.0.1, SVG Export Plug-In . SVG Version: 6.00 Build 0)  -->
<svg version="1.1" id="图层_1" xmlns="http://www.w3.org/2000/svg" xmlns:xlink="http://www.w3.org/1999/xlink" x="0px" y="0px"
	 viewBox="0 0 413 56" style="enable-background:new 0 0 413 56;" xml:space="preserve">
<style type="text/css">
	.st0{fill:#FFFFFF;}
	.st1{fill:none;stroke:#FFFFFF;stroke-miterlimit:10;}
	.st2{fill-rule:evenodd;clip-rule:evenodd;fill:#F0B419;}
	.st3{fill:#F0B419;}
</style>
<g>
	<rect x="-28" class="st0" width="21" height="56"/>
</g>
<g>
	<rect x="-49" class="st0" width="21" height="5"/>
</g>
<g>
	<rect x="-49" y="51" class="st0" width="21" height="5"/>
</g>
<text transform="matrix(1 0 0 1 -196.7603 31.8022)" class="st0" style="font-family:'AdobeSongStd-Light-GBpc-EUC-H'; font-size:12px;">对于型号字，高度必须为56PX</text>
<text transform="matrix(1 0 0 1 -271.7603 11.8022)" class="st0" style="font-family:'AdobeSongStd-Light-GBpc-EUC-H'; font-size:12px;">型号字需要距离顶部16PX</text>
<text transform="matrix(1 0 0 1 -120.7603 -164.1978)"><tspan x="0" y="0" class="st0" style="font-family:'AdobeSongStd-Light-GBpc-EUC-H'; font-size:12px;">【型号字输出规范】</tspan><tspan x="0" y="20.4" class="st0" style="font-family:'AdobeSongStd-Light-GBpc-EUC-H'; font-size:12px;">1）输出格式：SVG</tspan><tspan x="0" y="40.8" class="st0" style="font-family:'AdobeSongStd-Light-GBpc-EUC-H'; font-size:12px;">2）输出尺寸：画板高度必须为56PX，宽度可以延长。内容</tspan><tspan x="306.92" y="40.8" class="st0" style="font-family:'AdobeSongStd-Light-GBpc-EUC-H'; font-size:12px;">距离画板顶部需要保持16PX距离（依据参考线）</tspan><tspan x="560.3" y="40.8" class="st0" style="font-family:'AdobeSongStd-Light-GBpc-EUC-H'; font-size:12px;">。</tspan><tspan x="0" y="61.2" class="st0" style="font-family:'AdobeSongStd-Light-GBpc-EUC-H'; font-size:12px;">3）内容形式：必须为矢量图形！放入JPG/PNG无效；</tspan><tspan x="0" y="81.6" class="st0" style="font-family:'AdobeSongStd-Light-GBpc-EUC-H'; font-size:12px;">4）颜色调整：按照图片需要，对矢量图形统一填充颜色。一般为白色或黑色。iQOO可能会出现品牌黄。</tspan><tspan x="0" y="102" class="st0" style="font-family:'AdobeSongStd-Light-GBpc-EUC-H'; font-size:12px;">       特别注意在填充颜色的时候，白色的图形要拖到灰色区域测试效果！容易出现误删蒙版的情况。</tspan><tspan x="0" y="122.4" class="st0" style="font-family:'AdobeSongStd-Light-GBpc-EUC-H'; font-size:12px;">5）留白问题：背景不要填充任何色块。***特别注意！左右和底部保持顶边，不要留出空白！***</tspan></text>
<line class="st1" x1="-39.5" y1="4" x2="-39.5" y2="20.5"/>
<line class="st1" x1="-39.5" y1="35" x2="-39.5" y2="51.5"/>
<rect x="-121" class="st0" width="58" height="16"/>
<g>
	<g>
		<g>
			<g>
				<g>
					<g>
						<g>
							<g>
								<g>
									<g>
										<g>
											<g>
												<rect x="0.61" y="16.7" class="st2" width="6.28" height="6.28"/>
											</g>
											<g>
												<rect x="0.61" y="29.26" class="st2" width="6.28" height="25.67"/>
											</g>
											<g>
												<path class="st2" d="M25.61,35.81c0-7.08,5.74-12.83,12.83-12.83c7.08,0,12.83,5.74,12.83,12.83h6.28
													c0-10.55-8.56-19.11-19.11-19.11c-10.55,0-19.11,8.56-19.11,19.11c0,10.56,8.56,19.11,19.11,19.11h0v-6.28h0
													C31.35,48.64,25.61,42.89,25.61,35.81z"/>
											</g>
											<g>
												<path class="st2" d="M89.1,16.7c-10.55,0-19.11,8.56-19.11,19.11c0,10.56,8.56,19.11,19.11,19.11
													c10.56,0,19.11-8.56,19.11-19.11C108.21,25.25,99.65,16.7,89.1,16.7z M89.1,48.64c-7.08,0-12.83-5.74-12.83-12.83
													c0-7.08,5.74-12.83,12.83-12.83c7.08,0,12.83,5.74,12.83,12.83C101.93,42.89,96.18,48.64,89.1,48.64z"/>
											</g>
											<g>
												<path class="st2" d="M158.65,32.9c-1.4-9.17-9.33-16.2-18.89-16.2c-10.55,0-19.11,8.56-19.11,19.11v0v0
													c0,10.55,8.56,19.11,19.11,19.11c10.56,0,19.11-8.56,19.11-19.11C158.87,34.82,158.79,33.85,158.65,32.9z M139.76,48.64
													c-7.08,0-12.83-5.74-12.83-12.83c0-7.08,5.74-12.83,12.83-12.83c7.08,0,12.83,5.74,12.83,12.83
													C152.59,42.89,146.84,48.64,139.76,48.64z"/>
											</g>
											<g>
												
													<rect x="44.91" y="34.4" transform="matrix(0.7089 -0.7053 0.7053 0.7089 -18.0709 47.1169)" class="st2" width="6.28" height="22.11"/>
											</g>
										</g>
									</g>
								</g>
							</g>
							<g>
								<polygon class="st3" points="202.17,43.74 202.17,43.91 202.08,43.78 184.39,17.97 178.72,17.97 178.72,53.54 184.06,53.54 
									184.06,27.64 184.06,27.3 184.25,27.58 201.89,53.54 207.55,53.54 207.55,17.97 202.17,17.97 								"/>
								<path class="st3" d="M241.68,40.42c0-0.74-0.06-1.48-0.17-2.19v0c-1.06-6.94-7.13-12.18-14.11-12.18
									c-7.92,0-14.37,6.44-14.37,14.37c0,7.92,6.44,14.36,14.37,14.36c5.75,0,10.63-2.79,13.25-6.74l-4.61-3.11
									c-1.6,2.89-5.11,4.86-8.64,4.86c-4.43,0-8.13-3.08-9.12-7.21h23.29l0.11-1.33l-0.01-0.03
									C241.69,40.96,241.68,40.69,241.68,40.42z M227.41,31.04c4.37,0,8.04,3.01,9.07,7.06h-18.15
									C219.37,34.05,223.04,31.04,227.41,31.04z"/>
								<path class="st3" d="M275.11,38.22c-1.06-6.96-7.19-12.21-14.24-12.21c-7.94,0-14.41,6.46-14.41,14.41
									c0,7.94,6.46,14.41,14.41,14.41c7.94,0,14.41-6.46,14.41-14.41C275.28,39.68,275.22,38.94,275.11,38.22z M260.87,49.75
									c-5.15,0-9.33-4.19-9.33-9.34s4.19-9.34,9.33-9.34c5.15,0,9.33,4.19,9.33,9.34S266.02,49.75,260.87,49.75z"/>
							</g>
						</g>
						<g>
							<path class="st3" d="M295.71,37.2v-5c5.3,0,8.27-2.23,8.27-5.41c0-3.3-2.78-5.14-6.18-5.14c-2.93,0-5.94,1.69-5.93,5.13h-5.6
								c0.32-8.68,7.12-10.32,11.61-10.32c7.18,0,11.64,4.93,11.56,10.47c-0.05,3.47-1.41,6.16-4.23,8.09
								c3.22,1.85,5.33,4.85,5.33,9c0,7.09-6.16,11.57-12.84,11.57c-6.96,0-12.64-3.9-12.98-10.86h5.37
								c0.53,4.28,4.7,5.63,7.62,5.63c4.25,0,7.27-2.94,7.27-6.58C304.97,41.23,303.13,37.2,295.71,37.2z"/>
						</g>
					</g>
				</g>
			</g>
		</g>
	</g>
	<g>
		<path class="st3" d="M377.73,40.49c0.1,0.04,0.17-0.1,0.08-0.15c-1.45-0.92-2.24-2.4-2.24-4.67c0-4.35,3.32-5.68,10.12-5.68
			c3.41,0,6.43,0.33,8.53,0.64c1.39,0.2,2.63-0.88,2.63-2.29V26.5c-1.45-0.4-5.11-1.14-11.17-1.14c-6.77,0-11.43,1.28-13.78,4.35
			c-0.51,0.74-1.18,2.16-0.81,4.17C371.66,36.89,374.28,39.2,377.73,40.49z"/>
		<path class="st3" d="M383.47,46.26c5.63,0,7.94-1.11,9.45-1.67l2.8,1.36c0.37,0.15,0.68,0.31,1.05,0.31
			c0.43,0,0.92-0.28,0.92-0.96v-7.31v-2.35v-0.11c0-1.05-0.85-1.9-1.89-1.9h-9.71v1.98c0,1.31,1.06,2.37,2.36,2.37h3.95v2.75
			c-1.08,0.4-3.72,0.86-8.46,0.86c-4.78,0-8.56-0.9-11.03-2.89c-1.54-1.24-2.31-2.64-2.72-3.92c-0.02,0.29-0.03,0.58-0.03,0.89
			C370.15,43.08,374.61,46.26,383.47,46.26z"/>
		<path class="st3" d="M344.62,45.44c2.22,0.4,5.51,0.82,9.33,0.82c8.67,0,13.01-1.95,13.01-6.84c0-6.07-5.85-6.41-12.39-6.41
			c-2.07,0-5.08,0.22-6.81,0.34l0.53-3.25h14.63c1.44,0,2.62-1.17,2.62-2.61v-1.75h-20.33c-0.63,0-1.17,0.45-1.27,1.08l-1.24,7.31
			c-0.34,1.83,0.31,3.16,2.45,3.07c4.02-0.12,5.79-0.15,8.82-0.15c5.51,0,7.31,0.22,7.31,2.38c0,2.08-1.7,2.45-7.37,2.45
			c-4.03,0-8.92-0.74-11.52-1.33v2.21C342.37,44.06,343.31,45.2,344.62,45.44z"/>
		<path class="st3" d="M335.09,50.26c3.38,2.98,7.95,4.62,12.88,4.62h46.1c9.12,0,18.93-5.96,18.93-19.04
			c0-7.57-3.27-12.04-6.02-14.46c-3.39-2.99-7.98-4.63-12.91-4.63h-46.1c-9.09,0-18.88,5.97-18.88,19.09
			C329.09,43.39,332.35,47.85,335.09,50.26z M347.97,20.2h46.1c7.71,0,15.48,4.83,15.48,15.64c0,10.77-7.77,15.58-15.48,15.58h-46.1
			c-7.68,0-15.43-4.82-15.43-15.58C332.54,25.03,340.29,20.2,347.97,20.2z"/>
	</g>
</g>
</svg>
