<?xml version="1.0" encoding="utf-8"?>
<!-- Generator: Adobe Illustrator 22.1.0, SVG Export Plug-In . SVG Version: 6.00 Build 0)  -->
<svg version="1.1" id="图层_1" xmlns="http://www.w3.org/2000/svg" xmlns:xlink="http://www.w3.org/1999/xlink" x="0px" y="0px"
	 viewBox="0 0 178 56" style="enable-background:new 0 0 178 56;" xml:space="preserve">
<g>
	<g>
		<g>
			<path d="M0.5,53.4v-6.7c4.3,1.1,13.1,2.7,22.7,2.7c11.2,0,13.7-1.4,13.7-4.6c0-2.7-2.5-3.5-7.1-4.3l-16.4-2.8
				C5.8,36.4,0,34.6,0,27.1c0-7.3,4.7-11,22.3-11c8.6,0,16.3,0.9,20.8,1.8v6.6c-4.4-0.8-12.9-1.9-20.8-1.9C9.7,22.6,8,24.2,8,26.9
				c0,2.8,2.6,3.5,7.2,4.3L31.6,34c8.5,1.4,13.3,3.8,13.3,10.8c0,7.7-5.6,11.1-22.1,11.1C12.9,56,4.9,54.6,0.5,53.4z"/>
			<path d="M99.4,42.7C99.4,51.3,92.8,56,76,56c-17.5,0-24.6-6.2-24.6-19.1c0-15.2,9-20.8,28.5-20.8c7.3,0,13.8,0.9,16.7,1.5v6.6
				c-3.1-0.6-9.7-1.6-16.5-1.6c-14.2,0-19.6,1.9-20.8,10.1c4.3-0.9,11-1.9,18.8-1.9C92.1,30.8,99.4,33.3,99.4,42.7z M91.5,42.9
				c0-5-4.5-6-14.2-6c-7.4,0-14.1,0.9-18.2,1.7c0.6,8.3,5.3,11,16.7,11C86.8,49.5,91.5,47.9,91.5,42.9z"/>
		</g>
	</g>
	<g>
		<path d="M151.4,44.5c0.1,0,0.1-0.1,0.1-0.1c-1.1-0.7-1.7-1.8-1.7-3.5c0-3.3,2.5-4.3,7.6-4.3c2.6,0,4.8,0.2,6.4,0.5
			c1,0.2,2-0.7,2-1.7V34c-1.1-0.3-3.8-0.9-8.4-0.9c-5.1,0-8.6,1-10.3,3.3c-0.4,0.6-0.9,1.6-0.6,3.1
			C146.9,41.8,148.9,43.6,151.4,44.5z"/>
		<path d="M165,39.4h-7.3v1.5c0,1,0.8,1.8,1.8,1.8h3v2.1c-0.8,0.3-2.8,0.6-6.3,0.6c-3.6,0-6.4-0.7-8.3-2.2c-1.2-0.9-1.7-2-2-2.9
			c0,0.2,0,0.4,0,0.7c0,5.6,3.3,7.9,10,7.9c4.2,0,6-0.8,7.1-1.3l2.1,1c0.3,0.1,0.5,0.2,0.8,0.2c0.3,0,0.7-0.2,0.7-0.7v-5.5v-1.8
			v-0.1C166.4,40,165.8,39.4,165,39.4z"/>
		<path d="M134.1,38.9c-1.6,0-3.8,0.2-5.1,0.3l0.4-2.4h11c1.1,0,2-0.9,2-2v-1.3H127c-0.5,0-0.9,0.3-1,0.8l-0.9,5.5
			c-0.3,1.4,0.2,2.4,1.8,2.3c3-0.1,4.3-0.1,6.6-0.1c4.1,0,5.5,0.2,5.5,1.8c0,1.6-1.3,1.8-5.5,1.8c-3,0-6.7-0.6-8.6-1v1.7
			c0,1,0.7,1.8,1.7,2c1.7,0.3,4.1,0.6,7,0.6c6.5,0,9.8-1.5,9.8-5.1C143.4,39.2,139,38.9,134.1,38.9z"/>
		<path d="M173.4,30.2c-2.5-2.2-6-3.5-9.7-3.5h-34.6c-6.8,0-14.2,4.5-14.2,14.3c0,5.7,2.5,9,4.5,10.8c2.5,2.2,6,3.5,9.7,3.5h34.6
			c6.8,0,14.2-4.5,14.2-14.3C177.9,35.4,175.5,32,173.4,30.2z M163.7,52.7h-34.6c-5.8,0-11.6-3.6-11.6-11.7
			c0-8.1,5.8-11.7,11.6-11.7h34.6c5.8,0,11.6,3.6,11.6,11.7C175.3,49.1,169.5,52.7,163.7,52.7z"/>
	</g>
</g>
</svg>
