<?xml version="1.0" encoding="utf-8"?>
<!-- Generator: Adobe Illustrator 22.0.0, SVG Export Plug-In . SVG Version: 6.00 Build 0)  -->
<svg version="1.1" id="图层_1" xmlns="http://www.w3.org/2000/svg" xmlns:xlink="http://www.w3.org/1999/xlink" x="0px" y="0px"
	 viewBox="0 0 244 56" style="enable-background:new 0 0 244 56;" xml:space="preserve">
<style type="text/css">
	.st0{fill:#FFFFFF;}
	.st1{fill:none;stroke:#FFFFFF;stroke-miterlimit:10;}
</style>
<g>
	<rect x="-28" class="st0" width="21" height="56"/>
</g>
<g>
	<rect x="-49" class="st0" width="21" height="5"/>
</g>
<g>
	<rect x="-49" y="51" class="st0" width="21" height="5"/>
</g>
<text transform="matrix(1 0 0 1 -196.7603 31.8022)" class="st0" style="font-family:'AdobeSongStd-Light-GBpc-EUC-H'; font-size:12px;">对于型号字，高度必须为56PX</text>
<text transform="matrix(1 0 0 1 -271.7603 11.8022)" class="st0" style="font-family:'AdobeSongStd-Light-GBpc-EUC-H'; font-size:12px;">型号字需要距离顶部16PX</text>
<text transform="matrix(1 0 0 1 -120.7603 -164.1978)"><tspan x="0" y="0" class="st0" style="font-family:'AdobeSongStd-Light-GBpc-EUC-H'; font-size:12px;">【型号字输出规范】</tspan><tspan x="0" y="20.4" class="st0" style="font-family:'AdobeSongStd-Light-GBpc-EUC-H'; font-size:12px;">1）输出格式：SVG</tspan><tspan x="0" y="40.8" class="st0" style="font-family:'AdobeSongStd-Light-GBpc-EUC-H'; font-size:12px;">2）输出尺寸：画板高度必须为56PX，宽度可以延长。内容</tspan><tspan x="306.9" y="40.8" class="st0" style="font-family:'AdobeSongStd-Light-GBpc-EUC-H'; font-size:12px;">距离画板顶部需要保持16PX距离（依据参考线）</tspan><tspan x="560.3" y="40.8" class="st0" style="font-family:'AdobeSongStd-Light-GBpc-EUC-H'; font-size:12px;">。</tspan><tspan x="0" y="61.2" class="st0" style="font-family:'AdobeSongStd-Light-GBpc-EUC-H'; font-size:12px;">3）内容形式：必须为矢量图形！放入JPG/PNG无效；</tspan><tspan x="0" y="81.6" class="st0" style="font-family:'AdobeSongStd-Light-GBpc-EUC-H'; font-size:12px;">4）颜色调整：按照图片需要，对矢量图形统一填充颜色。一般为白色或黑色。iQOO可能会出现品牌黄。</tspan><tspan x="0" y="102" class="st0" style="font-family:'AdobeSongStd-Light-GBpc-EUC-H'; font-size:12px;">       特别注意在填充颜色的时候，白色的图形要拖到灰色区域测试效果！容易出现误删蒙版的情况。</tspan><tspan x="0" y="122.4" class="st0" style="font-family:'AdobeSongStd-Light-GBpc-EUC-H'; font-size:12px;">5）留白问题：背景不要填充任何色块。***特别注意！左右和底部保持顶边，不要留出空白！***</tspan></text>
<line class="st1" x1="-39.5" y1="4" x2="-39.5" y2="20.5"/>
<line class="st1" x1="-39.5" y1="35" x2="-39.5" y2="51.5"/>
<rect x="-121" class="st0" width="58" height="16"/>
<g>
	<g>
		<path d="M19.6,35.7L0.7,16.8h9.9l13.7,13.8c0.4,0.4,0.9,0.8,1.4,1c0.5,0.2,1,0.3,1.5,0.3c0.6,0,1.1-0.1,1.5-0.3
			c0.5-0.2,0.9-0.5,1.4-1l13.7-13.8h9.9L34.9,35.7l19.2,19.4H44.1L30.2,41c-0.5-0.5-0.9-0.8-1.4-1.1c-0.4-0.2-1-0.3-1.6-0.3
			c-0.6,0-1.1,0.1-1.6,0.3c-0.4,0.2-0.9,0.6-1.4,1.1L10.5,55.2h-10L19.6,35.7z"/>
		<path d="M102.4,35.5c2.7,1.6,4.1,4.3,4.1,8c0,4.3-1.9,7.5-5.8,9.5c-3.9,2-10.1,3-18.6,3c-4.3,0-8.4-0.2-12.3-0.6
			c-3.9-0.4-7-0.9-9.2-1.5v-6.5c2.9,0.6,6.2,1.1,10.1,1.5c3.8,0.4,7.6,0.7,11.4,0.7c4.3,0,7.6-0.2,9.9-0.6c2.4-0.4,4.1-1,5.1-1.9
			c1-0.9,1.5-2,1.5-3.5c0-1.3-0.3-2.2-1-2.9c-0.6-0.7-1.7-1.2-3.2-1.5c-1.5-0.3-3.5-0.5-6-0.5H72.8v-4.9l20.1-10.5H61.4v-6.4h40.4
			c1.2,0,2.1,0.3,2.6,0.8c0.6,0.5,0.9,1.3,0.9,2.2c0,1.7-1,3.1-2.9,4.1L85,33.1h5C95.5,33.1,99.6,33.9,102.4,35.5z"/>
		<path d="M120.1,50.8c-4-3.4-6-8.4-6-14.9c0-6.4,2-11.4,5.9-14.8c4-3.4,10.3-5.1,19.1-5.1c8.7,0,15.1,1.7,19.1,5.1
			c4,3.4,5.9,8.4,5.9,14.8c0,6.5-2,11.4-6,14.9c-4,3.4-10.3,5.2-19,5.2S124.1,54.3,120.1,50.8z M152.2,45.9c2.6-2.2,3.9-5.5,3.9-10
			c0-4.4-1.3-7.7-3.9-9.9c-2.6-2.2-6.9-3.2-13.1-3.2s-10.5,1.1-13.1,3.2s-3.9,5.5-3.9,9.9c0,4.4,1.3,7.8,3.9,10
			c2.6,2.2,6.9,3.3,13.1,3.3S149.6,48.1,152.2,45.9z"/>
	</g>
	<g>
		<g>
			<g id="XMLID_2_">
				<path id="XMLID_10_" d="M214.8,36.5c-0.4,0.6-0.9,1.6-0.6,3.1c0.4,2.3,2.4,4,5,5c0.1,0,0.1-0.1,0.1-0.1
					c-1.1-0.7-1.7-1.8-1.7-3.5c0-3.3,2.5-4.3,7.6-4.3c2.6,0,4.8,0.2,6.4,0.5c1,0.2,2-0.7,2-1.7v-1.4c-1.1-0.3-3.8-0.9-8.4-0.9
					C220.1,33.2,216.6,34.2,214.8,36.5z"/>
				<path id="XMLID_9_" d="M223.9,45.4c3.6,0,5.6-0.3,6.4-0.6v-2.1h-3c-1,0-1.8-0.8-1.8-1.8v-1.5h7.3c0.8,0,1.4,0.6,1.4,1.4v0.1v1.8
					v5.5c0,0.5-0.4,0.7-0.7,0.7c-0.3,0-0.5-0.1-0.8-0.2l-2.1-1c-1.1,0.4-2.9,1.3-7.1,1.3c-6.7,0-10-2.4-10-8c0-0.2,0-0.4,0-0.7
					c0.3,1,0.9,2,2,2.9C217.4,44.7,220.3,45.4,223.9,45.4z"/>
			</g>
			<path id="XMLID_1_" d="M201.8,39c-1.6,0-3.8,0.2-5.1,0.3l0.4-2.4h11c1.1,0,2-0.9,2-2v-1.3h-15.3c-0.5,0-0.9,0.3-1,0.8l-0.9,5.5
				c-0.3,1.4,0.2,2.4,1.8,2.3c3-0.1,4.4-0.1,6.6-0.1c4.1,0,5.5,0.2,5.5,1.8c0,1.6-1.3,1.8-5.5,1.8c-3,0-6.7-0.6-8.7-1l0,1.7
				c0,1,0.7,1.9,1.7,2c1.7,0.3,4.1,0.6,7,0.6c6.5,0,9.8-1.5,9.8-5.1C211.1,39.2,206.7,39,201.8,39z"/>
		</g>
		<path d="M229.9,55.3H197c-4.3,0-8-1.5-10.5-4.4c-2.3-2.6-3.6-6-3.6-9.8c0-3.8,1.3-7.2,3.6-9.8c2.6-2.9,6.2-4.4,10.5-4.4h32.9
			c4.3,0,8,1.5,10.6,4.4c2.3,2.6,3.6,6.1,3.6,9.8c0,3.8-1.3,7.2-3.6,9.8C237.8,53.8,234.2,55.3,229.9,55.3z M197,29.9
			c-5.5,0-11,3.5-11,11.2c0,7.7,5.5,11.1,11,11.1h32.9c5.5,0,11.1-3.4,11.1-11.1c0-7.7-5.5-11.2-11.1-11.2H197z"/>
	</g>
</g>
</svg>
